<svg width="72" height="72" viewBox="0 0 72 72" fill="none" xmlns="http://www.w3.org/2000/svg">
    <path d="M47.3805 25.38C47.7844 25.38 48.0681 25.4675 48.2314 25.6426C48.3965 25.827 48.4835 26.0684 48.4738 26.3157C48.4586 26.6706 48.3614 27.0172 48.1897 27.3282L38.1029 44.8305C37.7589 45.3918 37.2869 45.8638 36.7256 46.2078C36.1306 46.5866 35.5633 46.776 35.0239 46.776H25.3006C24.8967 46.776 24.6059 46.6885 24.4296 46.5067C24.3421 46.4184 24.2737 46.3131 24.2285 46.1973C24.1833 46.0816 24.1624 45.9577 24.167 45.8335C24.1785 45.4724 24.2909 45.1217 24.4915 44.8211L33.4433 29.2655C33.6139 28.9561 33.7111 28.6115 33.7273 28.2585C33.7382 28.011 33.6511 27.7691 33.485 27.5853C33.3221 27.4103 33.0394 27.3161 32.6341 27.3161C32.0956 27.3161 31.5283 27.5054 30.9324 27.8842C30.3701 28.2309 29.8977 28.7056 29.5537 29.2696L20.6006 44.8251C20.2565 45.3864 19.7846 45.8584 19.2233 46.2024C18.6282 46.5812 18.0609 46.7706 17.5215 46.7706H7.79961C7.39481 46.7706 7.1049 46.6808 6.92988 46.5013C6.84101 46.4138 6.77121 46.3087 6.72487 46.1929C6.67853 46.0771 6.65665 45.9529 6.66061 45.8282C6.6721 45.467 6.7845 45.1163 6.98508 44.8157L25.784 12.2533C25.931 11.9688 26.1306 11.7148 26.3723 11.5047C26.5729 11.2989 26.8434 11.1759 27.1303 11.16C27.3188 11.16 27.4938 11.2947 27.6567 11.5639L33.0421 20.719C33.2133 21.0573 33.2966 21.4333 33.2844 21.8122C33.2896 22.3352 33.1642 22.8512 32.9195 23.3134C32.6772 23.7738 32.5547 24.1508 32.5547 24.4484C32.5547 25.0695 32.9586 25.38 33.7664 25.38H47.3805Z" fill="white"/>
    <path d="M46.2706 59.8556C46.1161 60.1416 45.9175 60.4015 45.6822 60.6257C45.4973 60.8217 45.2432 60.9376 44.974 60.9488C44.7303 60.9488 44.5284 60.8142 44.3655 60.5449L39.0192 51.3898C38.8176 51.0466 38.719 50.6526 38.7351 50.2549C38.7359 49.9258 38.7835 49.5985 38.8765 49.2828C38.9601 48.9875 39.0757 48.7022 39.2211 48.4319L51.4553 27.2851C51.781 26.7159 52.2492 26.2413 52.8137 25.9078C53.4205 25.529 53.994 25.34 54.5344 25.3409H64.2576C64.6364 25.3409 64.9128 25.4356 65.0869 25.625C65.2639 25.8099 65.3606 26.0571 65.3562 26.313C65.3366 26.6542 65.24 26.9866 65.0735 27.2851L46.2706 59.8556Z" fill="white"/>
</svg>
